<?xml version="1.0" encoding="UTF-8"?>
<svg id="Layer_3" data-name="Layer 3" xmlns="http://www.w3.org/2000/svg" viewBox="0 0 344.16 359.27">
  <defs>
    <style>
      @font-face {
        font-family: belgan;
        src: url('../fonts/belgan-aesthetic.regular.otf');
      }

      .cls-1 {
        stroke: #231f20;
      }

      .cls-1, .cls-2 {
        fill: none;
        stroke-miterlimit: 10;
      }

      .cls-2 {
        stroke: #d0c870;
      }

      .cls-3 {
        <!-- font-family: BelganAesthetic-Regular, 'Belgan Aesthetic'; -->
        font-family: belgan;
        font-size: 200px;
      }

      .cls-3, .cls-4 {
        fill: #d0c870;
      }
    </style>
  </defs>
  <text class="cls-3" transform="translate(98.77 180.44)"><tspan x="0" y="0">A</tspan></text>
  <text class="cls-3" transform="translate(141.1 275.82)"><tspan x="0" y="0">H</tspan></text>
  <path class="cls-2" d="M247.9,178.86l11.71-2.46c7.41-.81,15.1-1.25,23.1-1.25h2.78c27.66,0,50.08,22.43,50.08,50.09s-22.42,50.08-50.08,50.08h-27.51"/>
  <line class="cls-2" x1="261.94" y1="275.32" x2="250.54" y2="275.32"/>
  <path class="cls-4" d="M98.76,161.03c.26,3.17-2.36,6.13-5.76,5.76-3-.83-4.46-1.67-5.76-5.76-4.52-10.19-10.41-11.96-10.41-11.96,0,0,.37-.83,.7-.76,1.6,.32,15.47,6.97,15.47,6.97,0,0,5.5,2.65,5.76,5.76Z"/>
  <path class="cls-2" d="M162.02,187.86l-19.28,17.31c-39.42,35.99-69.98,43.75-89.94,43.15h0s0,0-.02,0h-.05c-5.39-.17-10.01-.94-13.82-1.93-.02,0-.03,0-.05-.02"/>
  <path class="cls-1" d="M54.97,248.32h.06s.02,0,.03,0"/>
  <path class="cls-2" d="M38.91,246.4s-.04,0-.06-.02C16.13,239.96-.36,218.69,.53,193.71c.98-27.5,23.41-49.86,50.91-50.77,16.59-.54,31.53,6.57,41.55,18.09"/>
</svg>